<?xml version="1.0" encoding="UTF-8"?>
<svg xmlns="http://www.w3.org/2000/svg" xmlns:xlink="http://www.w3.org/1999/xlink" width="150px" height="150px" viewBox="0 0 150 150" version="1.1">
<g id="surface1">
<path style=" stroke:none;fill-rule:nonzero;fill:rgb(46.27451%,100%,89.803922%);fill-opacity:1;" d="M 75 27.824219 C 70.886719 27.824219 67.742188 24.675781 67.742188 20.566406 L 67.742188 7.257812 C 67.742188 3.144531 70.886719 0 75 0 C 79.113281 0 82.257812 3.144531 82.257812 7.257812 L 82.257812 20.566406 C 82.257812 24.433594 79.113281 27.824219 75 27.824219 Z M 75 27.824219 "/>
<path style=" stroke:none;fill-rule:nonzero;fill:rgb(5.098039%,74.901961%,72.941176%);fill-opacity:1;" d="M 75 150 C 70.886719 150 67.742188 146.855469 67.742188 142.742188 L 67.742188 129.433594 C 67.742188 125.324219 70.886719 122.175781 75 122.175781 C 79.113281 122.175781 82.257812 125.324219 82.257812 129.433594 L 82.257812 142.742188 C 82.257812 146.855469 79.113281 150 75 150 Z M 75 150 "/>
<path style=" stroke:none;fill-rule:nonzero;fill:rgb(73.333333%,100%,94.901961%);fill-opacity:1;" d="M 47.660156 35.082031 C 45.242188 35.082031 42.824219 33.871094 41.371094 31.453125 L 34.839844 20.082031 C 32.902344 16.695312 34.113281 12.097656 37.5 10.160156 C 40.886719 8.226562 45.484375 9.433594 47.417969 12.824219 L 53.953125 24.195312 C 55.886719 27.582031 54.675781 32.175781 51.289062 34.113281 C 50.324219 34.597656 48.871094 35.082031 47.660156 35.082031 Z M 47.660156 35.082031 "/>
<path style=" stroke:none;fill-rule:nonzero;fill:rgb(10.588235%,80.784314%,72.156863%);fill-opacity:1;" d="M 108.871094 140.804688 C 106.453125 140.804688 104.03125 139.597656 102.582031 137.175781 L 96.046875 125.804688 C 94.113281 122.417969 95.324219 117.824219 98.710938 115.886719 C 102.097656 113.953125 106.695312 115.160156 108.628906 118.546875 L 115.160156 129.917969 C 117.097656 133.304688 115.886719 137.902344 112.5 139.839844 C 111.289062 140.566406 110.082031 140.804688 108.871094 140.804688 Z M 108.871094 140.804688 "/>
<path style=" stroke:none;fill-rule:nonzero;fill:rgb(88.235294%,100%,97.647059%);fill-opacity:1;" d="M 27.824219 54.917969 C 26.613281 54.917969 25.402344 54.675781 24.195312 53.953125 L 12.824219 47.417969 C 9.433594 45.484375 8.226562 40.886719 10.160156 37.5 C 12.097656 34.113281 16.695312 32.902344 20.082031 34.839844 L 31.453125 41.371094 C 34.839844 43.304688 36.046875 47.902344 34.113281 51.289062 C 32.660156 53.710938 30.242188 54.917969 27.824219 54.917969 Z M 27.824219 54.917969 "/>
<path style=" stroke:none;fill-rule:nonzero;fill:rgb(14.901961%,85.882353%,75.294118%);fill-opacity:1;" d="M 133.789062 116.128906 C 132.582031 116.128906 131.371094 115.886719 130.160156 115.160156 L 118.546875 108.628906 C 115.160156 106.695312 113.953125 102.097656 115.886719 98.710938 C 117.824219 95.324219 122.417969 94.113281 125.804688 96.046875 L 137.175781 102.582031 C 140.566406 104.515625 141.773438 109.113281 139.839844 112.5 C 138.628906 114.917969 136.210938 116.128906 133.789062 116.128906 Z M 133.789062 116.128906 "/>
<path style=" stroke:none;fill-rule:nonzero;fill:rgb(95.294118%,100%,99.215686%);fill-opacity:1;" d="M 20.566406 82.257812 L 7.257812 82.257812 C 3.144531 82.257812 0 79.113281 0 75 C 0 70.886719 3.144531 67.742188 7.257812 67.742188 L 20.566406 67.742188 C 24.675781 67.742188 27.824219 70.886719 27.824219 75 C 27.824219 79.113281 24.433594 82.257812 20.566406 82.257812 Z M 20.566406 82.257812 "/>
<path style=" stroke:none;fill-rule:nonzero;fill:rgb(18.039216%,89.803922%,77.647059%);fill-opacity:1;" d="M 142.742188 82.257812 L 129.433594 82.257812 C 125.324219 82.257812 122.175781 79.113281 122.175781 75 C 122.175781 70.886719 125.324219 67.742188 129.433594 67.742188 L 142.742188 67.742188 C 146.855469 67.742188 150 70.886719 150 75 C 150 79.113281 146.855469 82.257812 142.742188 82.257812 Z M 142.742188 82.257812 "/>
<path style=" stroke:none;fill-rule:nonzero;fill:rgb(6.666667%,68.235294%,72.941176%);fill-opacity:1;" d="M 16.210938 116.128906 C 13.789062 116.128906 11.371094 114.917969 9.917969 112.5 C 7.984375 109.113281 9.195312 104.515625 12.582031 102.582031 L 23.953125 96.046875 C 27.339844 94.113281 31.933594 95.324219 33.871094 98.710938 C 35.804688 102.097656 34.597656 106.695312 31.210938 108.628906 L 19.839844 115.160156 C 18.871094 115.886719 17.660156 116.128906 16.210938 116.128906 Z M 16.210938 116.128906 "/>
<path style=" stroke:none;fill-rule:nonzero;fill:rgb(23.137255%,92.941176%,79.607843%);fill-opacity:1;" d="M 122.175781 54.917969 C 119.757812 54.917969 117.339844 53.710938 115.886719 51.289062 C 113.953125 47.902344 115.160156 43.304688 118.546875 41.371094 L 129.917969 34.839844 C 133.304688 32.902344 137.902344 34.113281 139.839844 37.5 C 141.773438 40.886719 140.566406 45.484375 137.175781 47.417969 L 125.804688 53.953125 C 124.597656 54.675781 123.386719 54.917969 122.175781 54.917969 Z M 122.175781 54.917969 "/>
<path style=" stroke:none;fill-rule:nonzero;fill:rgb(5.882353%,72.156863%,73.72549%);fill-opacity:1;" d="M 41.128906 140.804688 C 39.917969 140.804688 38.710938 140.566406 37.5 139.839844 C 34.113281 137.902344 32.902344 133.304688 34.839844 129.917969 L 41.371094 118.546875 C 43.304688 115.160156 47.902344 113.953125 51.289062 115.886719 C 54.675781 117.824219 55.886719 122.417969 53.953125 125.804688 L 47.417969 137.175781 C 45.96875 139.597656 43.546875 140.804688 41.128906 140.804688 Z M 41.128906 140.804688 "/>
<path style=" stroke:none;fill-rule:nonzero;fill:rgb(34.117647%,96.862745%,84.705882%);fill-opacity:1;" d="M 102.339844 35.082031 C 101.128906 35.082031 99.917969 34.839844 98.710938 34.113281 C 95.324219 32.175781 94.113281 27.582031 96.046875 24.195312 L 102.582031 12.824219 C 104.515625 9.433594 109.113281 8.226562 112.5 10.160156 C 115.886719 12.097656 117.097656 16.695312 115.160156 20.082031 L 108.628906 31.453125 C 107.175781 33.628906 104.757812 35.082031 102.339844 35.082031 Z M 102.339844 35.082031 "/>
</g>
</svg>
